<?xml version="1.0" encoding="UTF-8"?>
<svg width="1157px" height="682px" viewBox="0 0 1157 682" version="1.1" xmlns="http://www.w3.org/2000/svg" xmlns:xlink="http://www.w3.org/1999/xlink">
    <title>Expressive Design Systems</title>
    <g id="Page-1" stroke="none" stroke-width="1" fill="none" fill-rule="evenodd">
        <g id="Artboard" fill="#FFFFFF">
            <path d="M62.815,321 L0.571,321 L0.571,1.8 L62.416,1.8 L62.416,18.957 L18.127,18.957 L18.127,151.026 L56.431,151.026 L56.431,167.784 L18.127,167.784 L18.127,303.843 L62.815,303.843 L62.815,321 Z M111.588,188.532 L88.0469999,321 L69.2939999,321 L102.411,150.627 L73.2839999,1.8 L92.0369999,1.8 L112.785,117.909 L133.533,1.8 L151.488,1.8 L121.563,155.814 L154.281,321 L135.129,321 L111.588,188.532 Z M239.363,93.57 C239.363,133.071 237.767,155.415 230.186,167.385 C223.802,176.961 215.822,182.946 203.852,184.542 C197.069,185.34 189.488,184.941 189.488,184.941 L189.488,321 L171.932,321 L171.932,1.8 L204.251,1.8 C216.62,1.8 224.201,7.785 230.585,18.558 C235.772,27.735 239.363,53.67 239.363,93.57 Z M221.009,93.969 C221.009,57.261 217.817,36.912 215.423,30.528 C212.63,23.745 205.049,19.755 198.266,19.755 L189.488,19.755 L189.488,167.385 L197.468,167.385 C207.443,167.385 213.029,162.597 215.822,155.415 C219.014,147.834 221.009,129.081 221.009,93.969 Z M327.637,86.388 C327.637,112.722 325.243,132.273 322.45,139.854 C319.258,148.632 314.869,157.41 309.283,159.405 L334.819,321 L315.667,321 L292.525,164.991 L279.358,165.39 L279.358,321 L262.201,321 L262.201,1.8 L291.727,1.8 C313.273,1.8 322.45,16.164 325.243,38.508 C326.839,52.074 327.637,62.448 327.637,86.388 Z M308.884,89.58 C308.884,71.625 307.687,46.089 307.288,42.099 C306.091,28.932 300.904,19.356 291.727,19.356 L279.757,19.356 L279.757,148.233 C279.757,148.233 288.934,148.233 292.924,147.435 C300.106,146.637 302.899,141.051 304.495,135.465 C307.288,127.086 308.884,103.146 308.884,89.58 Z M416.31,321 L354.066,321 L354.066,1.8 L415.911,1.8 L415.911,18.957 L371.622,18.957 L371.622,151.026 L409.926,151.026 L409.926,167.784 L371.622,167.784 L371.622,303.843 L416.31,303.843 L416.31,321 Z M497.003,266.736 C497.003,309.828 481.841,323.394 460.295,323.394 C438.35,323.394 425.981,310.626 425.981,277.509 L425.981,239.604 L442.739,239.604 L442.739,271.524 C442.739,299.055 448.325,306.237 460.295,306.237 C471.467,306.237 478.649,299.055 478.649,269.13 C478.649,230.028 474.659,212.073 460.295,173.769 C457.103,165.39 451.118,152.622 446.729,141.849 C432.365,107.535 424.385,84.393 424.385,54.069 C424.385,17.361 439.547,0.204 461.093,0.204 C486.23,0.204 495.407,18.558 495.407,49.68 L495.407,86.787 L477.851,86.787 L477.851,50.877 C477.851,30.129 474.26,18.159 460.694,18.159 C447.926,18.159 442.34,28.134 442.34,55.266 C442.34,81.999 451.118,105.54 463.886,134.268 C465.881,139.056 473.861,157.41 477.452,165.789 C490.22,197.709 497.003,225.24 497.003,266.736 Z M582.085,266.736 C582.085,309.828 566.923,323.394 545.377,323.394 C523.432,323.394 511.063,310.626 511.063,277.509 L511.063,239.604 L527.821,239.604 L527.821,271.524 C527.821,299.055 533.407,306.237 545.377,306.237 C556.549,306.237 563.731,299.055 563.731,269.13 C563.731,230.028 559.741,212.073 545.377,173.769 C542.185,165.39 536.2,152.622 531.811,141.849 C517.447,107.535 509.467,84.393 509.467,54.069 C509.467,17.361 524.629,0.204 546.175,0.204 C571.312,0.204 580.489,18.558 580.489,49.68 L580.489,86.787 L562.933,86.787 L562.933,50.877 C562.933,30.129 559.342,18.159 545.776,18.159 C533.008,18.159 527.422,28.134 527.422,55.266 C527.422,81.999 536.2,105.54 548.968,134.268 C550.963,139.056 558.943,157.41 562.534,165.789 C575.302,197.709 582.085,225.24 582.085,266.736 Z M621.680999,321 L603.725999,321 L603.725999,1.8 L621.680999,1.8 L621.680999,321 Z M722.722999,1.8 L691.600999,321 L670.453999,321 L638.932999,1.8 L656.887999,1.8 L681.226999,273.918 L705.166999,1.8 L722.722999,1.8 Z M803.415999,321 L741.171999,321 L741.171999,1.8 L803.016999,1.8 L803.016999,18.957 L758.727999,18.957 L758.727999,151.026 L797.031999,151.026 L797.031999,167.784 L758.727999,167.784 L758.727999,303.843 L803.415999,303.843 L803.415999,321 Z M68.8,646.282 C66.805,661.843 60.421,679 35.284,679 L0.571,679 L0.571,359.8 L30.895,359.8 C54.436,359.8 66.007,372.568 68.8,393.715 C70.396,407.281 70.795,487.879 70.795,512.218 C70.795,539.35 70.795,629.524 68.8,646.282 Z M51.643,643.888 C52.441,618.751 52.441,523.789 52.441,511.819 C52.441,499.849 52.441,416.458 52.042,404.488 C51.643,386.533 43.264,376.558 32.491,376.558 L18.127,376.558 L18.127,663.04 L36.88,663.04 C44.461,663.04 51.244,657.853 51.643,643.888 Z M157.473,679 L95.2289999,679 L95.2289999,359.8 L157.074,359.8 L157.074,376.957 L112.785,376.957 L112.785,509.026 L151.089,509.026 L151.089,525.784 L112.785,525.784 L112.785,661.843 L157.473,661.843 L157.473,679 Z M238.166,624.736 C238.166,667.828 223.004,681.394 201.458,681.394 C179.513,681.394 167.144,668.626 167.144,635.509 L167.144,597.604 L183.902,597.604 L183.902,629.524 C183.902,657.055 189.488,664.237 201.458,664.237 C212.63,664.237 219.812,657.055 219.812,627.13 C219.812,588.028 215.822,570.073 201.458,531.769 C198.266,523.39 192.281,510.622 187.892,499.849 C173.528,465.535 165.548,442.393 165.548,412.069 C165.548,375.361 180.71,358.204 202.256,358.204 C227.393,358.204 236.57,376.558 236.57,407.68 L236.57,444.787 L219.014,444.787 L219.014,408.877 C219.014,388.129 215.423,376.159 201.857,376.159 C189.089,376.159 183.503,386.134 183.503,413.266 C183.503,439.999 192.281,463.54 205.049,492.268 C207.044,497.056 215.024,515.41 218.615,523.789 C231.383,555.709 238.166,583.24 238.166,624.736 Z M277.762,679 L259.807,679 L259.807,359.8 L277.762,359.8 L277.762,679 Z M372.42,679 L361.248,679 L357.258,672.217 C356.46,676.606 346.884,680.995 337.707,680.995 C318.555,680.995 305.787,670.222 304.989,643.888 C304.59,635.908 304.191,548.527 304.191,519.001 C304.191,489.475 303.792,428.029 304.191,402.493 C304.59,375.361 316.56,358.204 338.904,358.204 C362.844,358.204 370.824,375.76 371.622,393.715 C372.021,410.473 371.622,455.959 371.622,455.959 L354.066,455.959 L354.066,400.897 C354.066,383.74 348.48,376.957 338.904,376.957 C329.727,376.957 322.545,384.937 322.545,403.291 C322.545,421.645 322.146,498.652 322.146,519.799 C322.146,534.163 322.545,627.13 322.545,641.095 C322.545,656.656 327.333,665.434 338.904,665.434 C348.879,665.434 355.263,657.853 355.263,642.691 L355.263,530.173 L333.717,530.173 L333.717,513.016 L372.42,513.016 L372.42,679 Z M465.881,679 L446.729,679 L412.016,435.211 L412.016,679 L396.056,679 L396.056,359.8 L415.607,359.8 L449.522,598.003 L449.522,359.8 L465.881,359.8 L465.881,679 Z M606.917999,624.736 C606.917999,667.828 591.755999,681.394 570.209999,681.394 C548.264999,681.394 535.895999,668.626 535.895999,635.509 L535.895999,597.604 L552.653999,597.604 L552.653999,629.524 C552.653999,657.055 558.239999,664.237 570.209999,664.237 C581.381999,664.237 588.563999,657.055 588.563999,627.13 C588.563999,588.028 584.573999,570.073 570.209999,531.769 C567.017999,523.39 561.032999,510.622 556.643999,499.849 C542.279999,465.535 534.299999,442.393 534.299999,412.069 C534.299999,375.361 549.461999,358.204 571.007999,358.204 C596.144999,358.204 605.321999,376.558 605.321999,407.68 L605.321999,444.787 L587.765999,444.787 L587.765999,408.877 C587.765999,388.129 584.174999,376.159 570.608999,376.159 C557.840999,376.159 552.254999,386.134 552.254999,413.266 C552.254999,439.999 561.032999,463.54 573.800999,492.268 C575.795999,497.056 583.775999,515.41 587.366999,523.789 C600.134999,555.709 606.917999,583.24 606.917999,624.736 Z M703.969999,359.8 L668.458999,561.295 L668.458999,679 L649.306999,679 L649.306999,562.492 L615.790999,359.8 L633.745999,359.8 C633.745999,359.8 659.281999,515.011 659.680999,530.572 C659.680999,514.213 686.014999,359.8 686.014999,359.8 L703.969999,359.8 Z M785.061999,624.736 C785.061999,667.828 769.899999,681.394 748.353999,681.394 C726.408999,681.394 714.039999,668.626 714.039999,635.509 L714.039999,597.604 L730.797999,597.604 L730.797999,629.524 C730.797999,657.055 736.383999,664.237 748.353999,664.237 C759.525999,664.237 766.707999,657.055 766.707999,627.13 C766.707999,588.028 762.717999,570.073 748.353999,531.769 C745.161999,523.39 739.176999,510.622 734.787999,499.849 C720.423999,465.535 712.443999,442.393 712.443999,412.069 C712.443999,375.361 727.605999,358.204 749.151999,358.204 C774.288999,358.204 783.465999,376.558 783.465999,407.68 L783.465999,444.787 L765.909999,444.787 L765.909999,408.877 C765.909999,388.129 762.318999,376.159 748.752999,376.159 C735.984999,376.159 730.398999,386.134 730.398999,413.266 C730.398999,439.999 739.176999,463.54 751.944999,492.268 C753.939999,497.056 761.919999,515.41 765.510999,523.789 C778.278999,555.709 785.061999,583.24 785.061999,624.736 Z M864.557999,376.957 L837.026999,376.957 L837.026999,679 L819.470999,679 L819.470999,376.957 L792.338999,376.957 L792.338999,359.8 L864.557999,359.8 L864.557999,376.957 Z M945.250999,679 L883.006999,679 L883.006999,359.8 L944.851999,359.8 L944.851999,376.957 L900.562999,376.957 L900.562999,509.026 L938.866999,509.026 L938.866999,525.784 L900.562999,525.784 L900.562999,661.843 L945.250999,661.843 L945.250999,679 Z M1064.647,679 L1048.288,679 L1048.687,437.206 L1020.358,679 L1004.398,679 L978.462999,437.605 L978.861999,679 L962.901999,679 L962.901999,359.8 L984.048999,359.8 L1013.176,620.347 L1043.5,359.8 L1064.647,359.8 L1064.647,679 Z M1156.512,624.736 C1156.512,667.828 1141.35,681.394 1119.804,681.394 C1097.859,681.394 1085.49,668.626 1085.49,635.509 L1085.49,597.604 L1102.248,597.604 L1102.248,629.524 C1102.248,657.055 1107.834,664.237 1119.804,664.237 C1130.976,664.237 1138.158,657.055 1138.158,627.13 C1138.158,588.028 1134.168,570.073 1119.804,531.769 C1116.612,523.39 1110.627,510.622 1106.238,499.849 C1091.874,465.535 1083.894,442.393 1083.894,412.069 C1083.894,375.361 1099.056,358.204 1120.602,358.204 C1145.739,358.204 1154.916,376.558 1154.916,407.68 C1154.916,414.463 1154.916,444.787 1154.916,444.787 L1137.36,444.787 L1137.36,408.877 C1137.36,388.129 1133.769,376.159 1120.203,376.159 C1107.435,376.159 1101.849,386.134 1101.849,413.266 C1101.849,439.999 1110.627,463.54 1123.395,492.268 C1125.39,497.056 1133.37,515.41 1136.961,523.789 C1149.729,555.709 1156.512,583.24 1156.512,624.736 Z" id="EXPRESSIVE-DESIGN-SY"></path>
        </g>
    </g>
</svg>